<?xml version="1.0" encoding="UTF-8" standalone="no"?>
<!DOCTYPE svg PUBLIC "-//W3C//DTD SVG 1.1//EN" "http://www.w3.org/Graphics/SVG/1.1/DTD/svg11.dtd">
<svg width="100%" height="100%" viewBox="0 0 234 175" version="1.1" xmlns="http://www.w3.org/2000/svg" xmlns:xlink="http://www.w3.org/1999/xlink" xml:space="preserve" xmlns:serif="http://www.serif.com/" style="fill-rule:evenodd;clip-rule:evenodd;stroke-linejoin:round;stroke-miterlimit:2;">
    <g transform="matrix(1,0,0,1,-47.698,-37.5)">
        <path d="M178.806,66.271L247.92,204.5L209.038,204.5L199.038,184.5L80.809,184.5L150.309,45.5L189.191,45.5L178.806,66.271ZM179.538,145.5L159.365,105.153L139.555,144.771C139.537,144.806 139.523,144.844 139.514,144.883L139.513,144.887C139.502,144.933 139.498,144.98 139.501,145.027C139.505,145.113 139.532,145.194 139.575,145.263C139.617,145.332 139.678,145.392 139.753,145.435C139.793,145.458 139.837,145.475 139.883,145.486L139.887,145.487C139.927,145.496 139.966,145.501 140.006,145.5L179.538,145.5Z" style="fill:rgb(68,95,107);"/>
    </g>
</svg>
