<?xml version="1.0" encoding="UTF-8" standalone="no"?>
<!DOCTYPE svg PUBLIC "-//W3C//DTD SVG 1.1//EN" "http://www.w3.org/Graphics/SVG/1.1/DTD/svg11.dtd">
<svg width="100%" height="100%" viewBox="0 0 1920 1080" version="1.1" xmlns="http://www.w3.org/2000/svg" xmlns:xlink="http://www.w3.org/1999/xlink" xml:space="preserve" xmlns:serif="http://www.serif.com/" style="fill-rule:evenodd;clip-rule:evenodd;stroke-linejoin:round;stroke-miterlimit:2;">
    <g transform="matrix(-1,-3.21479e-16,3.21515e-16,-0.999522,1920,1080)">
        <path d="M0,281L45.7,265.5C91.3,250 182.7,219 274.2,215.8C365.7,212.7 457.3,237.3 548.8,233.5C640.3,229.7 731.7,197.3 823,187.3C914.3,177.3 1005.7,189.7 1097,217.2C1188.3,244.7 1279.7,287.3 1371.2,290C1462.7,292.7 1554.3,255.3 1645.8,235.8C1737.3,216.3 1828.7,214.7 1874.3,213.8L1920,213L1920,0L0,0L0,281Z" style="fill:rgb(50,164,154);fill-rule:nonzero;"/>
    </g>
</svg>
