<svg id="visual" viewBox="0 0 900 600" width="900" height="600" xmlns="http://www.w3.org/2000/svg" xmlns:xlink="http://www.w3.org/1999/xlink" version="1.1"><path d="M0 154L21.5 145.3C43 136.7 86 119.3 128.8 118.5C171.7 117.7 214.3 133.3 257.2 135.5C300 137.7 343 126.3 385.8 117C428.7 107.7 471.3 100.3 514.2 112.2C557 124 600 155 642.8 176.5C685.7 198 728.3 210 771.2 206C814 202 857 182 878.5 172L900 162L900 0L878.5 0C857 0 814 0 771.2 0C728.3 0 685.7 0 642.8 0C600 0 557 0 514.2 0C471.3 0 428.7 0 385.8 0C343 0 300 0 257.2 0C214.3 0 171.7 0 128.8 0C86 0 43 0 21.5 0L0 0Z" fill="#32A49A" stroke-linecap="round" stroke-linejoin="miter"></path></svg>